<?xml version="1.0" encoding="UTF-8"?>
<svg version="1.1" viewBox="0 0 802.14 170.02" xmlns="http://www.w3.org/2000/svg"><path d="M 196.32,170.02 98.16,0 0,170.02 h 39.26 l 58.9,-102.01 58.9,102.01 z" fill="#e4a8ca"/><g><g transform="translate(-16,-32)" fill="#884499"><path d="m223.69 145.77q-8.064 0-14.256-2.88-6.192-3.024-9.648-8.208t-3.456-11.952q0-10.8 8.064-16.704 8.208-6.048 22.464-6.048 9.792 0 18.432 3.024v-5.472q0-6.48-4.032-9.792t-11.808-3.312q-4.752 0-10.224 1.584-5.472 1.44-12.672 4.608l-7.2-14.544q8.928-4.032 16.992-6.048 8.208-2.016 16.416-2.016 15.12 0 23.472 7.344 8.496 7.2 8.496 20.448v48.672h-19.44v-5.328q-4.608 3.456-9.936 5.04t-11.664 1.584zm-8.64-23.472q0 4.32 3.744 6.912 3.744 2.448 9.936 2.448 4.896 0 9.072-1.152 4.176-1.296 7.488-3.744v-10.944q-3.6-1.44-7.488-2.16t-8.352-.72q-6.768 0-10.656 2.592-3.744 2.448-3.744 6.768z"/><path d="m279.71 144.48v-75.024h19.728v5.76q8.064-7.2 19.584-7.2 7.344 0 13.104 3.024 5.76 2.88 9.504 8.208 4.608-5.472 10.8-8.352 6.336-2.88 13.968-2.88 8.496 0 14.832 3.888 6.48 3.744 10.08 10.512 3.744 6.624 3.744 15.552v46.512h-19.584v-43.632q0-7.344-3.888-11.52-3.888-4.32-10.368-4.32-4.464 0-8.208 1.872-3.6 1.872-6.192 5.616.144 1.296.288 2.592t.144 2.88v46.512h-19.728v-43.632q0-7.344-3.888-11.52-3.744-4.32-10.224-4.32-4.464 0-8.064 1.728-3.456 1.728-5.904 5.184v52.56z"/><path d="m410.03 144.48v-75.024h19.728v75.024zm9.792-83.952q-4.608 0-7.92-3.312t-3.312-7.92q0-4.752 3.312-7.92 3.312-3.312 7.92-3.312 4.752 0 7.92 3.312 3.312 3.168 3.312 7.92 0 4.608-3.312 7.92-3.168 3.312-7.92 3.312z"/><path d="m469.07 145.77q-8.064 0-14.256-2.88-6.192-3.024-9.648-8.208t-3.456-11.952q0-10.8 8.064-16.704 8.208-6.048 22.464-6.048 9.792 0 18.432 3.024v-5.472q0-6.48-4.032-9.792t-11.808-3.312q-4.752 0-10.224 1.584-5.472 1.44-12.672 4.608l-7.2-14.544q8.928-4.032 16.992-6.048 8.208-2.016 16.416-2.016 15.12 0 23.472 7.344 8.496 7.2 8.496 20.448v48.672h-19.44v-5.328q-4.608 3.456-9.936 5.04t-11.664 1.584zm-8.64-23.472q0 4.32 3.744 6.912 3.744 2.448 9.936 2.448 4.896 0 9.072-1.152 4.176-1.296 7.488-3.744v-10.944q-3.6-1.44-7.488-2.16t-8.352-.72q-6.768 0-10.656 2.592-3.744 2.448-3.744 6.768z"/></g><g transform="translate(-16,-32)" fill="#e4a8ca"><path d="m526.38 144.48v-100.8l10.656-2.448v103.25z"/><path d="m555.18 144.48v-72.144h10.656v72.144zm5.328-85.968q-2.88 0-5.04-2.16t-2.16-5.04q0-3.024 2.16-5.04 2.16-2.16 5.04-2.16 3.024 0 5.04 2.16 2.16 2.016 2.16 5.04 0 2.88-2.16 5.04-2.016 2.16-5.04 2.16z"/><path d="m583.98 144.48v-72.144h10.656v8.496q8.496-9.936 22.752-9.936 8.208 0 14.4 3.6 6.336 3.456 9.792 9.792 3.6 6.192 3.6 14.544v45.648h-10.512v-43.488q0-9.648-5.472-15.12-5.328-5.616-14.688-5.616-6.48 0-11.52 2.88t-8.352 8.208v53.136z"/><path d="m689.97 145.92q-8.208 0-14.544-3.456-6.336-3.6-9.936-9.792-3.456-6.336-3.456-14.688v-45.648h10.512v43.488q0 9.648 5.472 15.264 5.472 5.472 14.688 5.472 6.48 0 11.52-2.88 5.184-3.024 8.352-8.352v-52.992h10.656v72.144h-10.656v-8.352q-8.496 9.792-22.608 9.792z"/><path d="m733.02 144.48 28.368-37.152-26.928-34.992h12.672l20.448 27.072 20.448-27.072h12.24l-26.64 34.848 28.512 37.296h-12.672l-22.032-29.376-22.32 29.376z"/></g></g><g fill="#4d4d4d" aria-label="anything cute is welcome"><path d="m238 158.89q-2.592 0-4.56-.864-1.968-.912-3.072-2.496-1.104-1.632-1.104-3.744 0-3.264 2.544-5.232 2.544-2.016 6.768-2.016t7.488 2.064v-3.936q0-3.264-1.776-4.848-1.776-1.632-5.088-1.632-1.632 0-3.408.528t-4.08 1.728l-.912-1.872q2.256-1.152 4.32-1.68 2.064-.576 4.128-.576 4.272 0 6.576 2.064 2.352 2.016 2.352 5.904v16.128h-2.112v-2.64q-1.632 1.488-3.648 2.304t-4.416.816zm-6.624-7.152q0 2.304 1.92 3.792t4.848 1.488q2.544 0 4.464-.864 1.92-.912 3.456-2.544v-4.896q-1.584-1.2-3.456-1.776t-4.272-.576q-3.12 0-5.04 1.488t-1.92 3.888z"/><path d="m254.61 158.41v-23.616h2.112v3.312q2.88-3.792 7.824-3.792 2.688 0 4.704 1.152 2.064 1.104 3.168 3.168 1.152 2.016 1.152 4.704v15.072h-2.112v-14.496q0-3.552-1.968-5.568-1.968-2.064-5.424-2.064-2.4 0-4.32 1.152-1.92 1.104-3.024 3.216v17.76z"/><path d="m279.62 168.58q-.528 0-1.056-.096-.528-.048-.912-.096v-2.112q.768.192 1.872.192 3.024 0 4.752-3.84l1.92-4.32-9.84-23.52h2.4l8.592 20.976 8.976-20.976h2.352l-12.288 28.032q-.912 2.064-1.92 3.312-.96 1.296-2.16 1.872-1.152.576-2.688.576z"/><path d="m311.54 158.89q-2.688 0-4.128-1.344t-1.44-3.744v-17.088h-5.184v-1.92h5.184v-5.952l2.112-.672v6.624h7.296v1.92h-7.296v16.368q0 2.016.864 2.928.912.864 2.976.864 1.104 0 1.872-.144.768-.192 1.584-.528v2.064q-.912.336-1.872.48t-1.968.144z"/><path d="m319.46 158.41v-33.6l2.112-.528v13.824q2.88-3.792 7.824-3.792 2.688 0 4.704 1.152 2.064 1.104 3.168 3.168 1.152 2.016 1.152 4.704v15.072h-2.112v-14.496q0-3.552-1.968-5.568-1.968-2.064-5.424-2.064-2.4 0-4.32 1.152-1.92 1.104-3.024 3.216v17.76z"/><path d="m344.85 158.41v-23.616h2.112v23.616zm1.056-28.944q-.768 0-1.296-.528t-.528-1.296.528-1.296 1.296-.528q.816 0 1.296.528.528.528.528 1.296t-.528 1.296q-.48.528-1.296.528z"/><path d="m353.49 158.41v-23.616h2.112v3.312q2.88-3.792 7.824-3.792 2.688 0 4.704 1.152 2.064 1.104 3.168 3.168 1.152 2.016 1.152 4.704v15.072h-2.112v-14.496q0-3.552-1.968-5.568-1.968-2.064-5.424-2.064-2.4 0-4.32 1.152-1.92 1.104-3.024 3.216v17.76z"/><path d="m390.26 168.68q-2.352 0-4.656-.672t-4.224-1.872l1.2-1.728q2.112 1.2 3.84 1.728 1.776.528 3.696.528 3.696 0 5.616-1.776t1.92-5.28v-4.032q-3.216 3.312-8.112 3.312-3.264 0-5.952-1.632t-4.272-4.416q-1.536-2.784-1.536-6.24t1.536-6.24q1.584-2.784 4.272-4.416t5.952-1.632q2.256 0 4.368.912 2.112.864 3.744 2.352v-2.784h2.112v24.72q0 4.512-2.496 6.816-2.448 2.352-7.008 2.352zm-.72-11.808q2.64 0 4.752-1.056 2.16-1.104 3.36-2.88v-12.672q-1.248-1.68-3.408-2.784-2.16-1.152-4.704-1.152-2.688 0-4.896 1.392-2.16 1.344-3.456 3.696-1.248 2.304-1.248 5.184t1.248 5.232q1.296 2.304 3.456 3.696 2.208 1.344 4.896 1.344z"/><path d="m427.55 158.89q-3.264 0-5.952-1.632t-4.272-4.416q-1.536-2.784-1.536-6.24t1.536-6.24q1.584-2.784 4.272-4.416t5.952-1.632q2.4 0 4.8.96 2.448.96 4.272 2.64l-1.44 1.728q-1.536-1.536-3.552-2.4-1.968-.912-4.08-.912-2.688 0-4.896 1.392-2.16 1.344-3.456 3.696-1.248 2.304-1.248 5.184t1.248 5.232q1.296 2.304 3.456 3.696 2.208 1.344 4.896 1.344 2.112 0 4.08-.912 2.016-.912 3.552-2.4l1.44 1.728q-1.824 1.68-4.272 2.64-2.4.96-4.8.96z"/><path d="m450.02 158.89q-2.64 0-4.704-1.104-2.016-1.152-3.168-3.168-1.152-2.064-1.152-4.752v-15.072h2.112v14.496q0 3.504 1.968 5.568t5.424 2.064q2.4 0 4.32-1.152t3.024-3.216v-17.76h2.112v23.616h-2.112v-3.264q-2.784 3.744-7.824 3.744z"/><path d="m474.79 158.89q-2.688 0-4.128-1.344t-1.44-3.744v-17.088h-5.184v-1.92h5.184v-5.952l2.112-.672v6.624h7.296v1.92h-7.296v16.368q0 2.016.864 2.928.912.864 2.976.864 1.104 0 1.872-.144.768-.192 1.584-.528v2.064q-.912.336-1.872.48t-1.968.144z"/><path d="m492.4 158.89q-3.264 0-5.952-1.632t-4.272-4.416q-1.536-2.784-1.536-6.24t1.488-6.24q1.536-2.784 4.176-4.416t5.904-1.632q3.072 0 5.472 1.632t3.792 4.368q1.44 2.688 1.44 6v.864h-20.112q.144 2.736 1.44 4.944 1.296 2.16 3.408 3.456 2.16 1.296 4.752 1.296 2.016 0 3.984-.624 1.968-.672 3.36-1.776l1.248 1.68q-1.92 1.392-4.08 2.064t-4.512.672zm-9.504-13.728h17.76q-.24-2.448-1.392-4.416-1.152-2.016-2.976-3.216t-4.128-1.2q-2.448 0-4.464 1.152-1.968 1.152-3.264 3.168-1.248 1.968-1.536 4.512z"/><path d="m518.71 158.41v-23.616h2.112v23.616zm1.056-28.944q-.768 0-1.296-.528t-.528-1.296.528-1.296 1.296-.528q.816 0 1.296.528.528.528.528 1.296t-.528 1.296q-.48.528-1.296.528z"/><path d="m534.07 158.89q-2.736 0-5.232-.96-2.448-1.008-4.128-2.88l1.632-1.344q1.44 1.488 3.456 2.352 2.064.864 4.272.864 3.264 0 5.232-1.392 2.016-1.44 2.016-3.696 0-1.68-1.2-2.784t-3.888-1.44l-3.888-.48q-3.36-.384-5.136-1.968-1.728-1.584-1.728-4.224 0-1.968 1.056-3.456t2.928-2.304q1.92-.864 4.416-.864 2.4 0 4.608.72t4.464 2.352l-1.248 1.728q-2.016-1.44-3.888-2.112-1.824-.72-3.888-.72-2.784 0-4.56 1.2-1.776 1.152-1.776 3.456 0 1.728 1.152 2.784 1.2 1.056 3.84 1.392l3.84.48q3.552.432 5.28 2.064t1.728 4.176q0 2.016-1.2 3.648-1.2 1.584-3.312 2.496-2.064.912-4.848.912z"/><path d="m562.96 158.41-7.2-23.616h2.208l6.144 20.448 6-20.448h2.112l5.952 20.496 6.144-20.496h2.112l-7.2 23.616h-2.112l-6-20.688-6.048 20.688z"/><path d="m600.4 158.89q-3.264 0-5.952-1.632t-4.272-4.416q-1.536-2.784-1.536-6.24t1.488-6.24q1.536-2.784 4.176-4.416t5.904-1.632q3.072 0 5.472 1.632t3.792 4.368q1.44 2.688 1.44 6v.864h-20.112q.144 2.736 1.44 4.944 1.296 2.16 3.408 3.456 2.16 1.296 4.752 1.296 2.016 0 3.984-.624 1.968-.672 3.36-1.776l1.248 1.68q-1.92 1.392-4.08 2.064t-4.512.672zm-9.504-13.728h17.76q-.24-2.448-1.392-4.416-1.152-2.016-2.976-3.216t-4.128-1.2q-2.448 0-4.464 1.152-1.968 1.152-3.264 3.168-1.248 1.968-1.536 4.512z"/><path d="m616.1 158.41v-33.6l2.112-.528v34.128z"/><path d="m635.39 158.89q-3.264 0-5.952-1.632t-4.272-4.416q-1.536-2.784-1.536-6.24t1.536-6.24q1.584-2.784 4.272-4.416t5.952-1.632q2.4 0 4.8.96 2.448.96 4.272 2.64l-1.44 1.728q-1.536-1.536-3.552-2.4-1.968-.912-4.08-.912-2.688 0-4.896 1.392-2.16 1.344-3.456 3.696-1.248 2.304-1.248 5.184t1.248 5.232q1.296 2.304 3.456 3.696 2.208 1.344 4.896 1.344 2.112 0 4.08-.912 2.016-.912 3.552-2.4l1.44 1.728q-1.824 1.68-4.272 2.64-2.4.96-4.8.96z"/><path d="m658.63 158.89q-3.264 0-5.952-1.632t-4.272-4.416q-1.536-2.832-1.536-6.24 0-3.456 1.536-6.24 1.584-2.784 4.272-4.416t5.952-1.632q3.312 0 5.952 1.632 2.688 1.632 4.224 4.416 1.584 2.784 1.584 6.24 0 3.408-1.584 6.24-1.536 2.784-4.224 4.416-2.64 1.632-5.952 1.632zm0-2.016q2.688 0 4.848-1.344 2.208-1.392 3.456-3.696 1.296-2.352 1.296-5.232t-1.296-5.184q-1.248-2.352-3.456-3.696-2.16-1.392-4.848-1.392t-4.896 1.392q-2.16 1.344-3.456 3.696-1.248 2.304-1.248 5.184t1.248 5.232q1.296 2.304 3.456 3.696 2.208 1.344 4.896 1.344z"/><path d="m675.81 158.41v-23.616h2.112v3.072q2.736-3.552 7.296-3.552 2.544 0 4.56 1.296 2.016 1.248 3.072 3.408 1.488-2.304 3.504-3.504 2.064-1.2 4.704-1.2 2.544 0 4.464 1.152 1.92 1.104 2.976 3.168 1.104 2.016 1.104 4.704v15.072h-2.112v-14.496q0-3.552-1.824-5.568-1.824-2.064-5.088-2.064-2.352 0-4.128 1.248-1.776 1.2-2.976 3.312.144.624.192 1.248.096.576.096 1.248v15.072h-2.112v-14.496q0-3.552-1.824-5.568-1.824-2.064-5.088-2.064-2.208 0-3.936 1.104-1.68 1.056-2.88 3.024v18z"/><path d="m726.69 158.89q-3.264 0-5.952-1.632t-4.272-4.416q-1.536-2.784-1.536-6.24t1.488-6.24q1.536-2.784 4.176-4.416t5.904-1.632q3.072 0 5.472 1.632t3.792 4.368q1.44 2.688 1.44 6v.864h-20.112q.144 2.736 1.44 4.944 1.296 2.16 3.408 3.456 2.16 1.296 4.752 1.296 2.016 0 3.984-.624 1.968-.672 3.36-1.776l1.248 1.68q-1.92 1.392-4.08 2.064t-4.512.672zm-9.504-13.728h17.76q-.24-2.448-1.392-4.416-1.152-2.016-2.976-3.216t-4.128-1.2q-2.448 0-4.464 1.152-1.968 1.152-3.264 3.168-1.248 1.968-1.536 4.512z"/></g></svg>
