<?xml version="1.0" encoding="UTF-8"?>
<svg version="1.1" viewBox="0 0 802.14 170.02" xmlns="http://www.w3.org/2000/svg"><g><path d="m196.32 170.02-98.16-170.02-98.16 170.02h39.26l58.9-102.01 58.9 102.01z" fill="#e4a8ca"/><g fill="#884499"><path d="m223.69 145.77q-8.064 0-14.256-2.88-6.192-3.024-9.648-8.208t-3.456-11.952q0-10.8 8.064-16.704 8.208-6.048 22.464-6.048 9.792 0 18.432 3.024v-5.472q0-6.48-4.032-9.792t-11.808-3.312q-4.752 0-10.224 1.584-5.472 1.44-12.672 4.608l-7.2-14.544q8.928-4.032 16.992-6.048 8.208-2.016 16.416-2.016 15.12 0 23.472 7.344 8.496 7.2 8.496 20.448v48.672h-19.44v-5.328q-4.608 3.456-9.936 5.04t-11.664 1.584zm-8.64-23.472q0 4.32 3.744 6.912 3.744 2.448 9.936 2.448 4.896 0 9.072-1.152 4.176-1.296 7.488-3.744v-10.944q-3.6-1.44-7.488-2.16t-8.352-.72q-6.768 0-10.656 2.592-3.744 2.448-3.744 6.768z"/><path d="m279.71 144.48v-75.024h19.728v5.76q8.064-7.2 19.584-7.2 7.344 0 13.104 3.024 5.76 2.88 9.504 8.208 4.608-5.472 10.8-8.352 6.336-2.88 13.968-2.88 8.496 0 14.832 3.888 6.48 3.744 10.08 10.512 3.744 6.624 3.744 15.552v46.512h-19.584v-43.632q0-7.344-3.888-11.52-3.888-4.32-10.368-4.32-4.464 0-8.208 1.872-3.6 1.872-6.192 5.616.144 1.296.288 2.592t.144 2.88v46.512h-19.728v-43.632q0-7.344-3.888-11.52-3.744-4.32-10.224-4.32-4.464 0-8.064 1.728-3.456 1.728-5.904 5.184v52.56z"/><path d="m410.03 144.48v-75.024h19.728v75.024zm9.792-83.952q-4.608 0-7.92-3.312t-3.312-7.92q0-4.752 3.312-7.92 3.312-3.312 7.92-3.312 4.752 0 7.92 3.312 3.312 3.168 3.312 7.92 0 4.608-3.312 7.92-3.168 3.312-7.92 3.312z"/><path d="m469.07 145.77q-8.064 0-14.256-2.88-6.192-3.024-9.648-8.208t-3.456-11.952q0-10.8 8.064-16.704 8.208-6.048 22.464-6.048 9.792 0 18.432 3.024v-5.472q0-6.48-4.032-9.792t-11.808-3.312q-4.752 0-10.224 1.584-5.472 1.44-12.672 4.608l-7.2-14.544q8.928-4.032 16.992-6.048 8.208-2.016 16.416-2.016 15.12 0 23.472 7.344 8.496 7.2 8.496 20.448v48.672h-19.44v-5.328q-4.608 3.456-9.936 5.04t-11.664 1.584zm-8.64-23.472q0 4.32 3.744 6.912 3.744 2.448 9.936 2.448 4.896 0 9.072-1.152 4.176-1.296 7.488-3.744v-10.944q-3.6-1.44-7.488-2.16t-8.352-.72q-6.768 0-10.656 2.592-3.744 2.448-3.744 6.768z"/></g><g fill="#e4a8ca"><path d="m526.38 144.48v-100.8l10.656-2.448v103.25z"/><path d="m555.18 144.48v-72.144h10.656v72.144zm5.328-85.968q-2.88 0-5.04-2.16t-2.16-5.04q0-3.024 2.16-5.04 2.16-2.16 5.04-2.16 3.024 0 5.04 2.16 2.16 2.016 2.16 5.04 0 2.88-2.16 5.04-2.016 2.16-5.04 2.16z"/><path d="m583.98 144.48v-72.144h10.656v8.496q8.496-9.936 22.752-9.936 8.208 0 14.4 3.6 6.336 3.456 9.792 9.792 3.6 6.192 3.6 14.544v45.648h-10.512v-43.488q0-9.648-5.472-15.12-5.328-5.616-14.688-5.616-6.48 0-11.52 2.88t-8.352 8.208v53.136z"/><path d="m689.97 145.92q-8.208 0-14.544-3.456-6.336-3.6-9.936-9.792-3.456-6.336-3.456-14.688v-45.648h10.512v43.488q0 9.648 5.472 15.264 5.472 5.472 14.688 5.472 6.48 0 11.52-2.88 5.184-3.024 8.352-8.352v-52.992h10.656v72.144h-10.656v-8.352q-8.496 9.792-22.608 9.792z"/><path d="m733.02 144.48 28.368-37.152-26.928-34.992h12.672l20.448 27.072 20.448-27.072h12.24l-26.64 34.848 28.512 37.296h-12.672l-22.032-29.376-22.32 29.376z"/></g></g></svg>
