<?xml version="1.0" encoding="UTF-8"?>
<svg version="1.1" viewBox="0 0 802.14 170.02" xmlns="http://www.w3.org/2000/svg"><path d="M 196.32,170.02 98.16,0 0,170.02 h 39.26 l 58.9,-102.01 58.9,102.01 z" fill="#e4a8ca"/><g transform="translate(-16,-32)" fill="#884499"><path d="m223.69 145.77q-8.064 0-14.256-2.88-6.192-3.024-9.648-8.208t-3.456-11.952q0-10.8 8.064-16.704 8.208-6.048 22.464-6.048 9.792 0 18.432 3.024v-5.472q0-6.48-4.032-9.792t-11.808-3.312q-4.752 0-10.224 1.584-5.472 1.44-12.672 4.608l-7.2-14.544q8.928-4.032 16.992-6.048 8.208-2.016 16.416-2.016 15.12 0 23.472 7.344 8.496 7.2 8.496 20.448v48.672h-19.44v-5.328q-4.608 3.456-9.936 5.04t-11.664 1.584zm-8.64-23.472q0 4.32 3.744 6.912 3.744 2.448 9.936 2.448 4.896 0 9.072-1.152 4.176-1.296 7.488-3.744v-10.944q-3.6-1.44-7.488-2.16t-8.352-.72q-6.768 0-10.656 2.592-3.744 2.448-3.744 6.768z"/><path d="m279.71 144.48v-75.024h19.728v5.76q8.064-7.2 19.584-7.2 7.344 0 13.104 3.024 5.76 2.88 9.504 8.208 4.608-5.472 10.8-8.352 6.336-2.88 13.968-2.88 8.496 0 14.832 3.888 6.48 3.744 10.08 10.512 3.744 6.624 3.744 15.552v46.512h-19.584v-43.632q0-7.344-3.888-11.52-3.888-4.32-10.368-4.32-4.464 0-8.208 1.872-3.6 1.872-6.192 5.616.144 1.296.288 2.592t.144 2.88v46.512h-19.728v-43.632q0-7.344-3.888-11.52-3.744-4.32-10.224-4.32-4.464 0-8.064 1.728-3.456 1.728-5.904 5.184v52.56z"/><path d="m410.03 144.48v-75.024h19.728v75.024zm9.792-83.952q-4.608 0-7.92-3.312t-3.312-7.92q0-4.752 3.312-7.92 3.312-3.312 7.92-3.312 4.752 0 7.92 3.312 3.312 3.168 3.312 7.92 0 4.608-3.312 7.92-3.168 3.312-7.92 3.312z"/><path d="m469.07 145.77q-8.064 0-14.256-2.88-6.192-3.024-9.648-8.208t-3.456-11.952q0-10.8 8.064-16.704 8.208-6.048 22.464-6.048 9.792 0 18.432 3.024v-5.472q0-6.48-4.032-9.792t-11.808-3.312q-4.752 0-10.224 1.584-5.472 1.44-12.672 4.608l-7.2-14.544q8.928-4.032 16.992-6.048 8.208-2.016 16.416-2.016 15.12 0 23.472 7.344 8.496 7.2 8.496 20.448v48.672h-19.44v-5.328q-4.608 3.456-9.936 5.04t-11.664 1.584zm-8.64-23.472q0 4.32 3.744 6.912 3.744 2.448 9.936 2.448 4.896 0 9.072-1.152 4.176-1.296 7.488-3.744v-10.944q-3.6-1.44-7.488-2.16t-8.352-.72q-6.768 0-10.656 2.592-3.744 2.448-3.744 6.768z"/></g><g transform="translate(-16,-32)" fill="#e4a8ca"><path d="m526.38 144.48v-100.8l10.656-2.448v103.25z"/><path d="m555.18 144.48v-72.144h10.656v72.144zm5.328-85.968q-2.88 0-5.04-2.16t-2.16-5.04q0-3.024 2.16-5.04 2.16-2.16 5.04-2.16 3.024 0 5.04 2.16 2.16 2.016 2.16 5.04 0 2.88-2.16 5.04-2.016 2.16-5.04 2.16z"/><path d="m583.98 144.48v-72.144h10.656v8.496q8.496-9.936 22.752-9.936 8.208 0 14.4 3.6 6.336 3.456 9.792 9.792 3.6 6.192 3.6 14.544v45.648h-10.512v-43.488q0-9.648-5.472-15.12-5.328-5.616-14.688-5.616-6.48 0-11.52 2.88t-8.352 8.208v53.136z"/><path d="m689.97 145.92q-8.208 0-14.544-3.456-6.336-3.6-9.936-9.792-3.456-6.336-3.456-14.688v-45.648h10.512v43.488q0 9.648 5.472 15.264 5.472 5.472 14.688 5.472 6.48 0 11.52-2.88 5.184-3.024 8.352-8.352v-52.992h10.656v72.144h-10.656v-8.352q-8.496 9.792-22.608 9.792z"/><path d="m733.02 144.48 28.368-37.152-26.928-34.992h12.672l20.448 27.072 20.448-27.072h12.24l-26.64 34.848 28.512 37.296h-12.672l-22.032-29.376-22.32 29.376z"/></g><g fill="#4d4d4d" aria-label="カワイイものなら、何でもウェルカムだよ。"><path d="m212.44 131.86h12.48c0 2.16-.096 6-.288 9.936l-.048.576v.288l-.048.576c-.336 4.944-.864 9.936-1.824 12.192-.48 1.152-1.248 1.536-2.208 1.536-1.728 0-3.648-.144-5.904-.432l.144 1.296c2.112.144 4.176.24 5.808.24s2.496-.432 3.264-1.968c1.776-4.464 2.208-18.864 2.304-22.896.048-.72.096-1.152.192-2.016l-1.008-.672c-.384.096-.864.096-1.968.096h-10.704v-.48c.048-.288.048-.624.096-.912v-.48c.096-1.248.144-2.544.144-3.84.048-1.152.096-2.256.192-3.312h-1.536c.144 1.104.192 2.256.192 3.36 0 1.968-.096 3.84-.192 5.664h-8.016c-1.344 0-2.4-.048-3.408-.096v1.44c.96-.096 1.776-.096 3.12-.096h8.208c-1.152 13.008-4.752 19.632-8.64 23.568-.768.672-1.92 1.776-2.784 2.304l1.152.912c5.856-4.896 9.888-11.76 11.28-26.784z"/><path d="m251.92 145.78c1.68-3.216 2.496-7.104 3.072-11.136l.096-.48c0-.288.048-.528.096-.768l.048-.48c.048-.384.096-.816.144-1.2l.096-.768.096-.96c.048-.24.048-.48.096-.72l.048-.528c0-.144.048-.288.048-.48l.048-.48c.048-.288.192-.912.336-1.152l-.96-.672c-.336.144-.864.144-1.2.144h-21.024c-1.248 0-2.112 0-2.832-.048.048.816.096 1.296.096 2.208v10.56c0 .48 0 1.056-.048 1.824h1.344c-.048-.864-.096-1.344-.096-2.016v-11.328h23.184c-.384 6.192-1.296 13.248-3.696 17.856-3.264 6.288-7.872 10.704-14.016 12.864l.96.96c6.192-2.304 11.04-7.2 14.064-13.2z"/><path d="m274.89 155.29v-21.216c3.744-3.072 6.576-6.096 9.216-9.552l.288-.336c.24-.336.48-.624.672-.96l-1.008-.912c-2.784 4.224-5.808 7.632-9.936 10.896-4.224 3.36-9.84 7.008-16.272 9.264l.672 1.152c5.952-2.4 11.184-5.424 15.216-8.592v20.256c0 1.488-.096 3.072-.192 3.744h1.488c-.048-.672-.144-2.256-.144-3.744z"/><path d="m304.29 155.29v-21.216c3.744-3.072 6.576-6.096 9.216-9.552l.288-.336c.24-.336.48-.624.672-.96l-1.008-.912c-2.784 4.224-5.808 7.632-9.936 10.896-4.224 3.36-9.84 7.008-16.272 9.264l.672 1.152c5.952-2.4 11.184-5.424 15.216-8.592v20.256c0 1.488-.096 3.072-.192 3.744h1.488c-.048-.672-.144-2.256-.144-3.744z"/><path d="m344.3 149.38c0-4.128-1.344-7.296-4.08-10.656l-1.392.336c3.168 3.024 4.368 7.008 4.368 10.224 0 6-4.176 9.408-10.464 9.408-4.896 0-7.008-3.696-7.008-9.024 0-1.536.096-3.744.288-6.192.384 0 .672.048 1.056.048h.672c2.544-.048 4.752-.096 7.584-.528v-1.296c-2.496.528-4.512.576-6.864.576h-2.304c.048-1.152.144-2.352.24-3.6l.096-.72c0-.24.048-.48.048-.72l.048-.72c.048-.096.048-.192.048-.24l.048-.48v-.24l.048-.528c.144-1.248.24-2.544.384-3.744h.624c2.976 0 5.184-.144 7.824-.432v-1.248c-2.544.432-4.944.576-7.872.576h-.48c.288-2.4.48-4.656.624-6.336 0-.864.192-1.488.336-2.304l-1.488-.096c.048.672.048 1.248 0 2.352-.144 1.68-.288 3.84-.528 6.192-2.832-.192-6.048-.576-8.64-1.584l-.144 1.2c2.64.816 5.856 1.584 8.64 1.776-.096 1.248-.24 2.544-.336 3.84l-.048.48c-.048.096-.048.144-.048.24l-.048.48c-.192 1.968-.384 3.888-.528 5.664-2.88-.192-5.952-.576-8.496-1.728l-.096 1.248c2.688 1.104 5.664 1.728 8.496 1.872-.192 2.592-.384 4.8-.384 6.336 0 7.632 3.936 9.984 8.304 9.984 6.768 0 11.472-3.36 11.472-10.416z"/><path d="m375.18 141.7c0-8.976-5.04-16.416-13.536-16.416-8.832 0-15.504 8.544-15.504 18.336 0 7.776 3.168 11.52 5.76 11.52 2.88 0 5.472-4.08 7.872-14.112.528-2.256.96-4.8 1.296-7.392l.096-.48c.096-.864.192-1.776.336-2.688l.048-.48c0-.144 0-.288.048-.48l.048-.48c.096-.864.192-1.776.24-2.64 7.968.144 12.192 7.44 12.192 15.216 0 9.552-5.52 14.496-10.464 15.792-.768.192-1.968.336-2.928.384l.624 1.2c8.064-1.056 13.248-6.528 13.824-15.552l.048-1.488v-.048zm-27.936 1.872c0-7.776 5.28-16.512 13.536-17.04-.144 1.968-.336 3.984-.624 6l-.096.48c0 .24-.048.48-.096.72l-.048.48c-.336 2.256-.768 4.464-1.296 6.528-2.304 9.744-4.704 13.248-6.672 13.248s-4.704-3.168-4.704-10.416zm27.936-1.632-.048 1.2c0-.384 0-.768.048-1.152v-.096z"/><path d="m385.48 130.42c2.496-.384 4.752-.864 7.104-1.776l-.048-1.296c-2.448 1.056-4.56 1.44-6.672 1.776.624-2.736 1.248-6.192 1.632-8.112l-1.488-.144c-.096 2.688-.672 6-1.344 8.592-1.872.096-3.408.288-4.944.288-1.872 0-3.024-.096-4.224-.288l.096 1.392c1.248-.048 2.784.048 4.08.048 1.584 0 3.024-.048 4.608-.192-1.776 6.144-5.088 14.448-8.352 19.056l1.296.672c1.872-3.12 3.888-7.488 5.568-12l.48-1.2.144-.48c.144-.336.24-.624.336-.96l.192-.48.144-.48c.528-1.488.96-2.976 1.392-4.416zm20.064 3.936c-1.632-1.68-5.424-4.608-8.256-6.144l-.624.912c2.448 1.44 6.192 4.08 8.112 6.48zm-8.88 19.872c0-.912-.096-2.16-.096-3.408 2.88 1.392 5.088 3.408 7.056 5.52l.72-1.104c-2.016-2.064-4.464-4.416-7.776-5.808-.096-3.504-.288-7.44-.336-9.696 0-1.344 0-2.112.096-4.128h-1.2c0 2.064.048 4.368.144 6.72l.048.768c0 .336 0 .624.048.96v.72c0 .24 0 .48.048.72v.528c.048 1.008.096 2.064.096 3.024-1.488-.528-2.928-.672-4.704-.672-3.312 0-6.624 1.776-6.624 5.952 0 4.272 2.928 5.76 6.624 5.76 4.032 0 5.856-2.64 5.856-5.856zm-11.376 0c0-2.736 2.208-4.848 5.616-4.848 1.728 0 3.168.384 4.656 1.008 0 1.248.048 2.496.048 3.456 0 2.544-1.152 5.088-4.896 5.088-3.648 0-5.232-1.776-5.376-4.272l-.048-.336z"/><path d="m427.31 125.58c-3.408-.384-11.04-2.4-14.016-3.6l-.336 1.248c1.44.528 4.176 1.296 6.96 1.968l.528.144c2.496.624 4.992 1.152 6.528 1.44zm4.464 21.648c0-5.376-3.696-8.88-8.736-8.88-5.184 0-9.36 2.16-13.296 7.056.288-1.824.624-4.992.912-8.16l.096-.576c.144-1.584.288-3.216.432-4.608l.096-.432c.048-.672.144-1.296.192-1.824l-1.296-.144c-.096 1.872-.384 5.136-.672 8.448l-.096.576c-.336 3.696-.768 7.44-1.2 9.504l1.296.336c.192-.576.384-1.296.864-2.016 2.976-4.464 6.96-7.104 12.72-7.104 4.464 0 7.584 3.312 7.584 7.824 0 7.008-5.232 12.384-17.952 10.704l.384 1.248c12.576 1.248 18.672-3.504 18.672-11.952z"/><path d="m450.46 160.47 1.392-1.152c-3.552-4.032-7.584-8.016-11.088-10.8l-1.2 1.152c3.456 2.688 7.632 6.768 10.896 10.8z"/><path d="m463.54 128.46c1.392-2.88 2.592-6.144 3.552-9.744l-1.056-.288c-.384 1.2-.72 2.448-1.152 3.6l-.144.48c-.336 1.056-.72 2.064-1.104 3.072l-.192.48c-1.728 4.368-3.792 8.4-6.096 11.52l.912.768c1.488-2.112 2.784-4.56 4.128-7.392v30.192h1.152zm23.136 32.304c1.104-.24 1.584-.96 1.584-2.736v-33.84h3.168v-1.152h-23.904v1.152h19.584v33.888c0 1.008-.192 1.584-1.008 1.632-.912.096-4.128.144-7.392 0l.096 1.344h1.056c3.456 0 5.76 0 6.816-.288zm-6.144-28.272h-11.232v16.32h11.232zm-10.128 15.12v-13.968h8.976v13.968z"/><path d="m518.49 158.55c-6-.192-13.68-3.456-13.68-14.304 0-5.664 2.88-14.208 9.216-17.088 1.824-.672 5.04-.912 7.392-.864v-1.2c-2.4.096-5.136.336-9.552.816-.624.048-1.248.096-1.824.192l-.624.048h-.336l-.576.096c-6 .624-11.712 1.536-13.2 1.776-.768.096-1.632.192-3.072.24l.24 1.488c2.064-.528 6.336-1.104 10.512-1.632l.528-.048c3.36-.432 6.576-.816 8.592-1.104-4.464 2.784-8.4 9.6-8.4 17.664 0 11.04 8.16 14.928 14.352 14.976zm4.8-20.064c-.96-2.352-2.448-5.136-3.36-6.624l-1.008.528c1.152 1.92 2.448 4.56 3.264 6.624zm-4.08 1.824c-.96-2.352-2.4-5.136-3.264-6.624l-1.056.528c1.104 1.872 2.448 4.656 3.216 6.672z"/><path d="m554.09 149.38c0-4.128-1.344-7.296-4.08-10.656l-1.392.336c3.168 3.024 4.368 7.008 4.368 10.224 0 6-4.176 9.408-10.464 9.408-4.896 0-7.008-3.696-7.008-9.024 0-1.536.096-3.744.288-6.192.384 0 .672.048 1.056.048h.672c2.544-.048 4.752-.096 7.584-.528v-1.296c-2.496.528-4.512.576-6.864.576h-2.304c.048-1.152.144-2.352.24-3.6l.096-.72c0-.24.048-.48.048-.72l.048-.72c.048-.096.048-.192.048-.24l.048-.48v-.24l.048-.528c.144-1.248.24-2.544.384-3.744h.624c2.976 0 5.184-.144 7.824-.432v-1.248c-2.544.432-4.944.576-7.872.576h-.48c.288-2.4.48-4.656.624-6.336 0-.864.192-1.488.336-2.304l-1.488-.096c.048.672.048 1.248 0 2.352-.144 1.68-.288 3.84-.528 6.192-2.832-.192-6.048-.576-8.64-1.584l-.144 1.2c2.64.816 5.856 1.584 8.64 1.776-.096 1.248-.24 2.544-.336 3.84l-.048.48c-.048.096-.048.144-.048.24l-.048.48c-.192 1.968-.384 3.888-.528 5.664-2.88-.192-5.952-.576-8.496-1.728l-.096 1.248c2.688 1.104 5.664 1.728 8.496 1.872-.192 2.592-.384 4.8-.384 6.336 0 7.632 3.936 9.984 8.304 9.984 6.768 0 11.472-3.36 11.472-10.416z"/><path d="m579.46 146.36c2.4-4.8 3.504-12.096 3.84-15.168.144-.864.288-1.488.432-1.872l-.864-.624c-.336.144-.768.192-2.064.192h-10.176v-5.376c0-.624.096-1.68.192-2.592h-1.44c.048.912.096 1.968.096 2.592v5.376h-8.784c-1.104 0-2.064 0-2.928-.096.096.864.144 1.92.144 2.832v8.784c0 .576-.048 1.44-.144 1.92h1.44c-.096-.528-.144-1.344-.144-1.968v-10.176h23.088c-.24 3.984-1.536 11.136-3.744 15.744-2.544 5.232-7.2 9.6-11.76 11.232-.864.336-1.68.576-2.496.72l1.008 1.152c7.248-2.544 11.616-7.152 14.304-12.672z"/><path d="m612.41 156.2c-.624.096-1.296.096-1.968.096h-10.128v-20.016h8.208c.816 0 1.68 0 2.4.048v-1.392c-.672.048-1.44.144-2.4.144h-17.28c-.384 0-1.392-.048-2.208-.144v1.392c.768-.048 1.872-.048 2.256-.048h7.872v20.016h-9.792c-.672 0-1.344 0-2.112-.096v1.44c.864-.048 1.584-.096 2.352-.096h20.64c.528 0 1.44.048 2.16.096z"/><path d="m632.69 157.45c4.608-2.784 9.36-7.296 12.816-13.344l-.72-1.008c-3.264 6.192-8.592 10.992-12.528 13.344v-31.056c0-1.056.048-1.632.096-2.112h-1.392c.048.624.096 1.296.096 2.784v29.424c0 .72-.048 1.248-.192 1.824l.864.816c.192-.192.528-.384.96-.672zm-10.944-11.376c1.056-4.656 1.2-14.736 1.2-19.776v-.384c0-.864.048-1.44.096-2.352h-1.44c.096.816.144 1.488.144 2.352v.384.192.576c0 2.4 0 5.52-.096 8.64l-.048.576c-.144 3.552-.432 7.056-.96 9.36-1.248 5.184-3.6 9.264-6.672 12.048l1.152.768c3.168-2.976 5.52-7.488 6.624-12.384z"/><path d="m656.29 131.86h12.48c0 2.16-.096 6-.288 9.936l-.048.576v.288l-.048.576c-.336 4.944-.864 9.936-1.824 12.192-.48 1.152-1.248 1.536-2.208 1.536-1.728 0-3.648-.144-5.904-.432l.144 1.296c2.112.144 4.176.24 5.808.24s2.496-.432 3.264-1.968c1.776-4.464 2.208-18.864 2.304-22.896.048-.72.096-1.152.192-2.016l-1.008-.672c-.384.096-.864.096-1.968.096h-10.704v-.48c.048-.288.048-.624.096-.912v-.48c.096-1.248.144-2.544.144-3.84.048-1.152.096-2.256.192-3.312h-1.536c.144 1.104.192 2.256.192 3.36 0 1.968-.096 3.84-.192 5.664h-8.016c-1.344 0-2.4-.048-3.408-.096v1.44c.96-.096 1.776-.096 3.12-.096h8.208c-1.152 13.008-4.752 19.632-8.64 23.568-.768.672-1.92 1.776-2.784 2.304l1.152.912c5.856-4.896 9.888-11.76 11.28-26.784z"/><path d="m702.34 158.74c-.72-2.304-2.208-6-3.792-9.6l-.24-.528-.24-.48c-1.392-3.12-2.88-6.144-4.08-8.208l-1.056.576c1.344 2.16 2.928 5.472 4.416 8.928l.24.48c.192.48.384.96.624 1.44-2.592.48-7.104 1.2-11.664 1.824l-.528.096c-.576.048-1.104.144-1.632.192l-.528.096c-1.92.24-3.792.48-5.52.672.816-2.544 2.208-7.776 3.6-13.104l.288-1.152c.336-1.344.672-2.64 1.008-3.936l.192-.816c.96-3.84 1.728-7.152 2.112-8.688.48-1.92.72-2.496 1.008-3.408l-1.584-.336c-.096.96-.192 1.536-.624 3.552-.432 1.968-1.536 6.624-2.832 11.664l-.576 2.304c-1.44 5.712-2.976 11.472-3.936 14.208-1.056.144-1.872.24-2.64.288-1.008.096-1.92.144-2.928.096l.288 1.488c.96-.192 1.728-.24 2.688-.336 2.352-.24 6.096-.768 10.08-1.344l.528-.048c.384-.096.72-.144 1.104-.192l.528-.048c4.656-.672 9.312-1.392 12.096-1.872 1.056 2.688 1.872 5.04 2.352 6.768z"/><path d="m739.56 128.36c-.768-1.92-2.208-4.56-3.312-6.336l-1.008.48c1.104 1.776 2.352 4.224 3.216 6.432zm-23.424 10.032c.288-1.2.48-2.496.72-3.744l.096-.48c.144-.816.288-1.68.432-2.544 2.784-.336 5.568-.72 8.304-1.68v-1.248c-2.544.864-5.328 1.344-8.112 1.728.336-1.92.576-3.792.816-5.376.144-.768.336-2.112.528-2.88l-1.488-.144c.048.864 0 1.968-.144 2.88-.096 1.104-.384 3.36-.816 5.808-1.392.144-2.64.144-3.744.192h-.624-.192c-1.248 0-2.64.048-4.32-.24l.048 1.2c1.44.144 2.736.24 4.176.24 1.344 0 2.784.048 4.416-.144-.384 2.208-.768 4.512-1.152 6.24-.672 3.168-1.536 6.864-2.496 10.464l-.096.48c-1.104 3.984-2.304 7.776-3.504 10.368l1.392.48c1.056-2.688 2.352-7.008 3.456-11.52l.144-.528c.048-.24.144-.48.192-.768l.096-.48c.096-.288.144-.528.192-.768l.144-.528c.576-2.448 1.104-4.896 1.536-7.008zm19.536-8.256c-.864-2.112-2.208-4.704-3.216-6.384l-1.056.528c1.056 1.728 2.448 4.464 3.168 6.624zm-5.328 7.536c2.112 0 4.176.144 6.192.48l.048-1.248c-1.92-.288-4.08-.432-6.384-.432-2.448 0-4.608.192-6.48.384v1.344c2.304-.384 4.464-.528 6.624-.528zm6.672 20.784.048-1.296c-2.016.576-4.416.864-6.864.864-6.816 0-7.488-2.976-7.488-5.376 0-1.44.192-2.736.576-4.512l-1.2-.096c-.336 2.16-.48 3.264-.48 4.704 0 4.656 2.928 6.384 8.544 6.384 2.544 0 4.896-.288 6.864-.672z"/><path d="m753.41 153.66c0-1.248-.048-2.928-.096-4.704 4.56 1.488 8.352 4.512 11.136 8.16l.72-1.344c-2.928-3.264-6.912-6.672-11.904-8.208 0-.864-.048-1.776-.048-2.736l-.048-.72v-1.008l-.048-.528c-.048-2.592-.144-5.136-.144-7.152v-2.352c3.216-.048 8.064-.528 11.712-1.008l-.048-1.2c-3.696.624-8.496.768-11.664.816v-6.24c0-1.008.144-3.072.24-3.744h-1.584c.144.624.24 2.64.24 3.744v9.792c0 2.016.096 4.512.144 7.104l.048.528v.96l.048.528c0 1.008.048 1.968.048 2.928-1.344-.336-2.592-.384-4.032-.384-6.288 0-8.592 2.976-8.592 6.624 0 4.464 3.072 6.288 8.16 6.288 3.792 0 5.712-2.688 5.712-6.144zm-12.768-.144c0-3.216 2.496-5.472 7.44-5.472 1.44 0 2.736.288 4.128.672.096 1.776.144 3.36.144 4.464 0 3.456-1.68 5.52-4.848 5.52-4.704 0-6.864-2.208-6.864-5.184z"/><path d="m779.1 146.89c-3.744 0-6.864 3.072-6.864 6.864s3.12 6.864 6.864 6.864c3.792 0 6.864-3.072 6.864-6.864s-3.072-6.864-6.864-6.864zm0 12.288c-2.976 0-5.424-2.4-5.424-5.424 0-2.976 2.448-5.424 5.424-5.424 3.024 0 5.424 2.448 5.424 5.424 0 3.024-2.4 5.424-5.424 5.424z"/></g></svg>
